<?xml version="1.0" encoding="UTF-8"?><svg id="Layer_1" xmlns="http://www.w3.org/2000/svg" viewBox="0 0 1300 900"><defs><style>.cls-1{fill:#2e5bff;}.cls-2{fill:#fff;}</style></defs><rect class="cls-1" x="-28.08" y="-30.95" width="1356.15" height="961.9"/><g><path class="cls-2" d="M565.98,503.61l42.22-56.41v-19.54h-69.55v19.89h41.7l-41.87,56.41v19.56h70.24v-19.9h-42.74Z"/><path class="cls-2" d="M689.51,427.66v13.66c-5.71-7.96-16.26-15.23-31.65-15.23-24.4,0-43.77,19.21-43.77,49.14s19.37,49.83,43.6,49.83c15.22,0,26.12-7.27,31.83-15.58v14.02h24.4v-95.85h-24.4Zm-25.42,76.12c-12.98,0-25.26-10.38-25.26-28.54s12.28-27.86,25.26-27.86,25.42,10.03,25.42,28.21-12.11,28.2-25.42,28.2Z"/><rect class="cls-2" x="487.48" y="427.25" width="30.38" height="30.38"/><rect class="cls-2" x="487.48" y="374.94" width="30.38" height="30.38"/><rect class="cls-2" x="538.48" y="374.94" width="30.38" height="30.38"/><polygon class="cls-2" points="812.52 523.51 785.18 523.51 766.1 494.73 746.83 523.51 720.87 523.51 753.21 475.22 721.68 427.66 749.02 427.66 766.92 454.75 785.06 427.66 812.17 427.66 799.66 444.62 779.83 474.22 812.52 523.51"/></g></svg>